<?xml version="1.0" standalone="no"?>
<!DOCTYPE svg PUBLIC "-//W3C//DTD SVG 20010904//EN"
 "http://www.w3.org/TR/2001/REC-SVG-20010904/DTD/svg10.dtd">
<svg version="1.0" xmlns="http://www.w3.org/2000/svg"
 width="600.000000pt" height="328.000000pt" viewBox="0 0 600.000000 328.000000"
 preserveAspectRatio="xMidYMid meet">
<g transform="translate(0.000000,328.000000) scale(0.100000,-0.100000)"
fill="#000000" stroke="none">
<path d="M3060 2966 c0 -2 9 -6 20 -9 11 -3 18 -1 14 4 -5 9 -34 13 -34 5z"/>
<path d="M2972 2947 c-15 -18 -17 -218 -3 -245 13 -24 50 -29 69 -10 8 8 12
51 12 128 0 77 -4 120 -12 128 -16 16 -53 15 -66 -1z m54 -115 c0 -70 -4 -109
-13 -120 -23 -31 -34 6 -32 113 2 111 4 117 27 113 15 -3 17 -19 18 -106z"/>
<path d="M2720 2930 c-119 -31 -149 -41 -253 -87 -115 -51 -152 -74 -269 -166
-252 -198 -428 -482 -484 -780 -20 -108 -15 -130 28 -135 35 -4 46 14 64 109
87 461 453 848 906 959 45 11 93 21 105 23 48 7 68 50 37 81 -20 20 -41 19
-134 -4z m99 -12 c11 -11 12 -10 6 2 -6 11 -3 10 11 -2 23 -22 8 -40 -32 -40
-15 0 -41 -6 -58 -13 -19 -8 -39 -9 -51 -4 -33 13 -42 9 -15 -7 24 -14 24 -15
3 -11 -13 3 -23 1 -23 -5 0 -5 -4 -7 -8 -4 -4 2 -39 -9 -77 -25 -39 -16 -77
-27 -85 -24 -8 4 -11 3 -7 -1 4 -4 -7 -16 -24 -26 -17 -11 -33 -17 -36 -14 -5
4 -14 -2 -47 -31 -10 -9 -20 -8 -42 3 l-29 14 24 -20 c14 -12 18 -20 10 -20
-8 0 -30 -13 -49 -30 -19 -16 -36 -28 -38 -26 -2 2 -41 -34 -87 -79 -45 -46
-86 -81 -89 -78 -3 4 -6 0 -6 -8 -1 -24 -57 -82 -71 -74 -7 5 -10 4 -5 -3 7
-12 -13 -62 -26 -62 -5 0 -6 -4 -3 -10 3 -6 -1 -7 -10 -4 -9 4 -15 3 -13 -2 6
-18 -35 -102 -48 -97 -8 3 -11 -2 -8 -14 3 -10 -2 -27 -11 -38 -9 -11 -13 -13
-9 -5 4 9 3 12 -2 7 -5 -5 -9 -14 -9 -20 -1 -31 -19 -84 -34 -101 -10 -12 -11
-16 -3 -12 12 7 12 4 2 -15 -12 -22 -16 -37 -19 -82 0 -10 -5 -16 -9 -13 -4 2
-8 -3 -9 -12 -7 -88 -11 -114 -21 -124 -15 -15 -43 -2 -39 19 25 143 42 213
49 196 5 -12 7 -6 6 19 -1 21 3 43 9 49 6 6 9 18 6 27 -5 11 -3 13 7 7 9 -5
11 -4 6 3 -8 13 11 55 22 48 4 -2 8 8 8 22 2 37 65 144 81 138 7 -3 13 -1 13
4 0 6 -5 10 -11 10 -5 0 -7 5 -4 10 4 6 11 8 16 5 5 -3 6 0 3 8 -3 8 3 23 14
33 10 11 27 33 37 51 10 18 22 30 26 27 4 -2 11 5 14 17 4 13 12 18 21 15 9
-3 12 -1 9 5 -11 17 157 175 212 199 17 8 30 17 27 21 -5 9 26 20 37 13 5 -3
8 0 7 8 -2 7 5 12 15 12 10 -1 16 0 13 3 -3 3 1 11 7 18 9 10 16 10 27 2 8 -6
12 -7 8 -3 -10 11 21 35 45 36 9 0 17 5 17 11 0 6 9 9 20 6 11 -3 18 -2 15 3
-9 14 118 55 136 44 7 -4 9 -3 6 3 -7 10 72 33 125 36 14 1 24 5 21 10 -7 12
12 8 26 -5z"/>
<path d="M1875 2240 c-3 -6 1 -7 9 -4 18 7 21 14 7 14 -6 0 -13 -4 -16 -10z"/>
<path d="M1789 2053 c-13 -16 -12 -17 4 -4 9 7 17 15 17 17 0 8 -8 3 -21 -13z"/>
<path d="M3150 2926 c-5 -15 -10 -31 -10 -36 0 -14 43 -40 66 -40 50 0 291
-79 325 -107 8 -7 20 -13 26 -13 6 0 57 -31 114 -69 275 -183 469 -470 534
-792 20 -96 28 -111 63 -107 42 5 47 27 28 124 -76 389 -332 736 -679 919
-133 71 -292 126 -404 141 -50 6 -53 5 -63 -20z m114 -14 c6 -3 20 -8 31 -9
10 -2 22 -7 25 -11 3 -4 20 -8 38 -10 49 -5 157 -49 154 -62 -1 -6 2 -9 7 -6
13 8 81 -25 81 -38 0 -6 5 -4 10 4 8 13 10 12 10 -3 0 -10 5 -15 11 -12 14 9
50 -25 42 -39 -4 -7 -1 -6 8 1 12 10 20 9 37 -3 12 -8 22 -21 22 -29 0 -9 6
-12 17 -8 13 5 15 2 10 -17 -4 -17 -3 -20 6 -11 18 18 31 13 16 -6 -9 -11 -10
-14 -2 -9 15 9 53 -10 53 -27 0 -9 -3 -9 -9 1 -6 11 -10 10 -19 -1 -9 -11 -8
-13 6 -12 9 0 23 4 30 9 8 4 12 1 12 -9 0 -9 4 -14 9 -11 19 12 18 -23 -1 -41
-12 -10 -18 -13 -15 -7 4 7 -2 14 -15 17 -12 4 -19 9 -15 13 4 4 -1 12 -12 18
-55 33 -103 69 -108 81 -3 8 -9 13 -13 10 -5 -3 -14 1 -22 8 -7 7 -26 18 -41
25 -15 6 -26 16 -23 20 3 5 0 9 -7 9 -24 0 -136 57 -130 66 3 6 1 7 -5 3 -12
-7 -90 12 -106 26 -6 4 -22 8 -37 8 -15 0 -43 7 -63 15 -20 9 -42 13 -48 9 -7
-4 -8 -3 -4 4 4 7 2 12 -3 12 -6 0 -11 -6 -11 -12 0 -21 -20 15 -20 36 0 16 5
18 42 12 22 -4 46 -10 52 -14z m661 -366 c17 -16 24 -30 19 -38 -4 -7 -4 -10
0 -7 4 4 22 -7 41 -24 30 -26 33 -33 23 -51 -10 -19 -10 -20 5 -7 10 7 18 11
18 7 1 -3 2 -11 3 -16 0 -6 6 -14 12 -18 16 -11 77 -105 77 -119 0 -7 4 -13 8
-13 4 0 6 -9 4 -21 -4 -17 -2 -19 11 -8 12 10 13 9 8 -5 -3 -9 -2 -16 4 -16 6
0 9 -11 8 -25 -2 -13 0 -22 5 -20 4 3 11 -5 14 -17 4 -13 18 -47 32 -76 13
-30 22 -60 20 -67 -3 -7 -2 -16 2 -21 14 -16 34 -103 27 -119 -3 -9 -2 -13 4
-10 6 3 10 -1 10 -10 0 -10 -5 -14 -12 -10 -7 4 -5 0 4 -7 20 -17 8 -41 -16
-32 -14 5 -15 9 -4 15 10 7 11 9 0 9 -7 0 -10 4 -7 10 3 5 -1 21 -10 34 -9 14
-15 33 -13 43 1 10 -1 23 -4 29 -4 6 -9 26 -10 45 -1 19 -8 40 -15 47 -7 7
-13 21 -13 30 0 9 -7 25 -15 35 -7 11 -11 26 -8 35 5 11 3 13 -6 7 -10 -6 -11
-2 -6 15 4 14 3 20 -2 17 -13 -8 -36 41 -27 55 4 6 2 8 -3 5 -11 -7 -26 16
-28 43 0 8 -6 14 -13 13 -11 -3 -14 1 -16 30 -1 6 -9 18 -18 25 -10 7 -18 20
-18 28 0 8 -4 14 -9 14 -5 0 -13 9 -16 20 -4 11 -10 18 -15 15 -9 -6 -21 20
-16 38 1 6 1 9 -1 5 -10 -18 -24 -6 -18 15 4 14 3 17 -3 9 -11 -17 -57 21 -46
39 4 7 3 9 -3 6 -15 -10 -24 18 -10 32 14 14 12 15 42 -13z"/>
<path d="M3710 2710 c0 -5 5 -10 11 -10 5 0 7 5 4 10 -3 6 -8 10 -11 10 -2 0
-4 -4 -4 -10z"/>
<path d="M2249 2359 c-18 -18 -21 -30 -17 -90 l4 -69 -77 0 c-57 0 -82 -4 -93
-16 -14 -14 -16 -80 -16 -579 l0 -564 22 -21 c18 -17 35 -20 102 -20 350 0
667 -123 759 -295 19 -36 22 -59 25 -210 2 -97 8 -175 14 -183 17 -20 56 -14
73 12 13 20 16 66 14 307 0 166 4 303 10 329 26 115 80 198 234 362 59 64 115
124 123 134 14 17 15 14 9 -38 -6 -55 -5 -58 19 -69 19 -9 33 -9 49 -2 22 10
24 22 40 159 9 82 15 149 14 150 -4 3 -253 -33 -275 -40 -27 -9 -39 -50 -21
-72 10 -13 24 -15 61 -11 26 4 48 4 48 1 0 -2 -54 -60 -119 -127 -66 -67 -135
-142 -155 -167 -48 -62 -105 -181 -113 -235 -7 -56 -17 -64 -33 -26 -23 56
-146 152 -262 205 -75 34 -184 65 -280 79 l-83 12 0 503 c0 397 3 502 13 502
37 0 216 -33 277 -52 124 -37 231 -99 303 -176 l42 -46 0 -153 c0 -84 -2 -153
-4 -153 -3 0 -24 13 -48 29 -24 15 -83 54 -133 86 -49 31 -101 65 -115 75 -59
41 -92 52 -116 41 -15 -7 -24 -19 -24 -34 0 -25 22 -49 85 -88 40 -26 127 -81
240 -155 33 -21 77 -55 97 -76 21 -21 44 -38 52 -38 32 0 66 20 80 48 8 16 60
66 115 111 55 45 106 87 113 94 7 7 40 35 73 61 32 27 64 54 71 60 6 7 39 34
73 61 60 49 70 69 55 109 -18 48 -68 13 -473 -332 l-51 -44 0 151 0 151 58 58
c104 104 261 169 489 202 39 5 74 10 77 10 3 0 6 -227 6 -503 l0 -504 -82 -15
c-237 -45 -373 -112 -422 -206 -33 -64 -67 -262 -45 -262 6 0 27 13 47 29 128
103 407 181 645 181 153 0 138 -66 135 611 -3 493 -5 571 -18 579 -8 5 -49 10
-90 10 l-75 0 0 76 c0 98 -11 108 -105 100 -284 -27 -508 -111 -630 -237 l-36
-38 -39 40 c-55 57 -114 94 -221 140 -132 56 -209 74 -411 94 -55 5 -65 3 -84
-16z m57 -7 c-2 -4 5 -9 17 -9 18 -2 19 0 7 8 -12 9 -12 10 3 5 10 -3 35 -6
55 -6 20 0 32 -4 26 -8 -7 -4 18 -8 55 -8 47 -1 97 -12 173 -37 118 -40 161
-63 151 -81 -4 -8 -2 -7 7 1 10 9 23 4 61 -20 27 -18 49 -39 50 -47 0 -8 3
-10 5 -4 3 7 18 -1 37 -20 18 -17 32 -33 31 -37 -4 -8 56 -2 64 7 4 4 -2 4
-13 1 -11 -4 0 11 25 33 25 22 49 40 53 40 4 0 18 9 30 21 31 29 62 45 52 27
-3 -7 0 -5 8 4 8 10 17 15 20 11 4 -3 7 -1 7 6 0 7 4 10 9 7 5 -3 14 1 21 9 7
8 23 15 36 15 13 0 24 4 24 8 0 4 9 8 21 9 11 1 39 8 62 16 49 17 143 35 219
43 29 3 58 7 65 9 6 2 14 -1 17 -8 3 -9 7 -8 14 2 16 23 30 -17 30 -82 -1 -61
21 -101 48 -90 8 3 14 0 14 -6 0 -7 7 -8 23 0 15 7 36 7 58 2 l34 -9 0 -565 1
-565 -43 -1 c-31 -1 -41 2 -36 10 5 9 3 9 -8 0 -8 -7 -40 -14 -70 -17 -30 -2
-63 -8 -73 -12 -13 -5 -17 -4 -13 3 5 8 -6 8 -34 2 -23 -6 -57 -10 -76 -11
-19 -1 -36 -5 -39 -10 -3 -4 -10 -5 -16 -2 -6 4 -13 2 -17 -4 -3 -6 -20 -12
-36 -15 -17 -2 -38 -7 -47 -10 -10 -4 -26 -10 -35 -14 -10 -3 -26 -5 -37 -4
-12 2 -16 -2 -11 -9 6 -9 2 -9 -13 -1 -30 16 -39 13 -16 -5 16 -13 16 -15 2
-10 -10 3 -18 2 -18 -2 0 -4 -13 -15 -30 -24 -28 -16 -31 -16 -52 2 -13 11
-20 20 -15 21 4 1 12 3 17 4 6 1 12 3 15 4 3 0 8 1 11 0 4 0 10 3 13 8 18 26
237 100 326 109 17 2 66 8 109 14 44 6 100 9 125 7 86 -7 81 -39 80 524 -1
555 1 539 -69 539 -22 0 -45 -7 -54 -16 -18 -18 -17 8 -17 -531 0 -287 -2
-373 -12 -374 -83 -7 -160 -18 -165 -24 -3 -2 -12 1 -20 8 -13 9 -14 9 -8 0 4
-8 1 -13 -8 -13 -9 0 -16 -4 -16 -9 0 -5 -6 -8 -12 -8 -19 2 -92 -15 -98 -22
-3 -3 -16 -12 -29 -19 -19 -11 -22 -11 -15 0 4 7 -5 3 -20 -10 -16 -12 -37
-22 -46 -22 -10 0 -20 -7 -24 -15 -3 -8 -11 -15 -18 -15 -7 0 -24 -12 -37 -25
-13 -14 -28 -25 -35 -25 -6 0 -4 5 4 10 8 5 16 14 16 20 1 5 2 15 3 21 0 5 5
8 10 4 5 -3 12 -1 16 5 3 5 1 10 -5 10 -6 0 -8 5 -5 10 4 6 11 8 16 5 5 -4 12
1 15 9 3 9 23 21 45 27 21 7 36 16 32 22 -3 5 0 8 8 5 8 -3 20 2 28 9 7 8 19
12 27 9 7 -3 18 2 24 10 7 8 22 14 34 14 11 0 39 6 61 14 62 21 97 28 91 18
-3 -5 6 -7 20 -4 20 3 23 7 12 14 -9 6 -6 7 9 3 12 -3 31 -1 43 5 20 11 20 18
20 519 0 489 -1 509 -19 525 -11 10 -27 15 -38 12 -10 -3 -38 -8 -63 -11 -25
-3 -60 -10 -77 -14 -18 -5 -42 -7 -54 -4 -17 5 -20 3 -14 -8 5 -8 5 -11 0 -7
-4 4 -25 0 -46 -9 -21 -8 -46 -12 -54 -9 -11 4 -14 2 -9 -6 5 -8 2 -9 -9 -5
-10 3 -17 3 -17 -2 0 -13 -48 -31 -67 -25 -14 5 -15 4 -4 -4 16 -12 4 -20 -26
-17 -12 1 -20 -2 -17 -7 3 -4 -8 -16 -25 -26 -17 -9 -31 -20 -31 -24 0 -5 -5
-8 -11 -8 -5 0 -7 5 -3 12 4 7 3 8 -5 4 -6 -4 -9 -11 -6 -16 7 -12 -55 -61
-67 -54 -6 4 -8 2 -4 -4 3 -6 1 -23 -5 -39 -16 -39 -15 -289 1 -308 16 -20 27
-19 58 5 20 16 27 18 35 8 6 -9 7 -8 3 4 -5 18 7 31 37 35 12 2 16 -1 11 -9
-4 -6 -3 -8 4 -5 5 4 9 18 7 32 -1 16 3 25 11 25 8 0 14 4 14 8 0 5 11 15 25
22 13 7 21 18 18 24 -4 6 2 4 12 -4 10 -8 16 -10 12 -4 -3 6 9 26 28 44 19 19
35 31 35 26 0 -4 11 6 25 21 20 22 24 24 19 8 -3 -11 3 -5 13 13 14 23 22 29
30 21 7 -7 12 -3 17 15 8 32 76 81 88 63 11 -17 10 -39 -2 -32 -5 3 -10 1 -10
-5 0 -6 -4 -9 -9 -6 -5 3 -8 -1 -7 -10 0 -9 -10 -23 -24 -32 -17 -12 -22 -13
-16 -3 6 10 5 12 -2 7 -7 -4 -12 -14 -12 -21 0 -8 -10 -20 -22 -26 -13 -7 -31
-21 -40 -31 -9 -11 -19 -19 -22 -19 -3 1 -5 -1 -3 -3 3 -6 -56 -51 -68 -51 -5
0 -10 -7 -10 -15 0 -9 -8 -14 -20 -12 -11 2 -17 1 -13 -3 6 -6 -64 -70 -110
-100 -8 -5 -31 -27 -50 -48 -29 -31 -37 -35 -51 -25 -13 10 -14 10 -3 -2 15
-18 16 -34 0 -24 -8 5 -9 2 -5 -10 4 -9 3 -15 -2 -11 -5 3 -11 0 -13 -7 -7
-20 -61 6 -107 51 -23 23 -48 39 -54 35 -7 -3 -3 2 7 10 11 9 24 16 29 16 4 0
5 5 1 11 -5 8 -1 8 14 0 12 -6 26 -19 31 -29 10 -16 10 -16 11 1 0 10 5 15 10
12 7 -4 10 51 10 158 0 127 -3 171 -15 193 -8 16 -15 25 -16 19 0 -5 -7 4 -14
20 -8 17 -14 24 -15 18 0 -8 -10 -5 -25 9 -13 11 -21 26 -18 32 3 6 3 8 -1 4
-5 -4 -17 2 -29 13 -11 10 -29 19 -39 19 -11 0 -17 4 -14 9 3 5 -2 8 -12 7 -9
0 -16 5 -14 12 1 8 -1 11 -6 8 -4 -2 -46 9 -93 26 -90 32 -146 47 -194 52 -16
1 -55 6 -85 10 -31 4 -61 3 -69 -3 -12 -8 -15 -94 -18 -510 -5 -526 -5 -531
38 -531 11 0 19 -4 19 -9 0 -4 10 -6 23 -4 12 2 51 -3 87 -12 36 -9 73 -17 83
-18 9 -1 17 -7 17 -14 0 -7 5 -13 10 -13 6 0 10 4 10 10 0 9 40 -5 100 -34 14
-7 24 -19 22 -27 -3 -11 -1 -11 8 -3 9 9 19 8 41 -5 16 -9 29 -19 29 -23 0 -5
4 -8 10 -8 16 0 60 -42 54 -52 -3 -5 -1 -7 3 -6 10 3 73 -56 73 -68 0 -8 31
-33 43 -34 4 0 7 7 7 15 0 8 6 12 13 9 9 -3 13 6 14 31 1 20 7 43 15 52 9 12
9 14 1 9 -9 -5 -11 -2 -7 8 3 9 11 16 17 16 6 0 8 3 4 6 -14 15 114 210 145
220 10 3 18 10 18 15 0 15 26 39 34 32 3 -4 6 1 6 11 0 9 5 14 10 11 6 -3 10
-1 10 6 0 7 7 21 16 31 16 17 18 17 30 0 13 -16 14 -16 8 1 -7 20 11 24 19 3
3 -8 -21 -41 -59 -80 -35 -36 -64 -63 -64 -59 0 5 -9 -7 -20 -25 -11 -18 -27
-35 -35 -38 -8 -4 -13 -10 -10 -14 3 -5 0 -15 -7 -22 -7 -8 -18 -23 -25 -33
-6 -11 -16 -19 -21 -18 -5 1 -8 -6 -5 -16 3 -10 0 -22 -6 -25 -6 -4 -11 -16
-11 -27 0 -11 -4 -17 -10 -14 -6 3 -7 -1 -4 -9 3 -9 2 -16 -2 -16 -5 0 -10
-12 -11 -27 -1 -16 -4 -53 -8 -83 -3 -30 -7 -171 -8 -312 -2 -229 -4 -256 -18
-255 -14 1 -16 15 -13 102 4 119 -9 213 -37 266 -11 22 -17 45 -13 52 4 7 4 9
-1 5 -10 -9 -35 10 -35 26 0 6 5 4 11 -4 9 -13 10 -13 6 0 -2 8 -8 15 -13 15
-17 0 -74 46 -69 56 4 5 -1 6 -9 3 -9 -3 -16 -1 -16 4 0 6 -10 14 -22 18 -13
3 -30 12 -38 19 -8 6 -41 22 -72 35 -34 13 -55 27 -51 33 3 6 1 7 -6 3 -13 -9
-121 12 -121 23 0 4 -17 8 -37 9 -21 1 -59 6 -86 13 -26 6 -54 8 -62 5 -8 -3
-15 -2 -15 2 0 4 -46 7 -102 7 -113 0 -129 7 -127 58 0 18 0 268 -1 556 -3
600 -14 539 97 540 74 1 83 11 78 86 -3 54 15 95 41 95 8 0 13 -4 10 -8z
m1554 -751 l0 -506 -83 -3 c-225 -7 -491 -76 -579 -151 -52 -43 -43 -11 13 45
64 65 157 115 278 149 67 19 220 45 262 45 25 0 30 69 29 484 0 237 0 434 0
438 0 4 18 6 40 6 l40 0 0 -507z m-1211 269 c77 -42 104 -64 93 -75 -4 -5 -1
-5 7 0 7 4 16 4 20 -1 3 -5 19 -15 35 -22 25 -11 26 -15 15 -30 -13 -15 -12
-16 3 -4 14 11 21 11 42 -3 52 -34 18 -66 -40 -39 -19 9 -31 21 -27 27 3 6 1
7 -6 3 -7 -5 -22 3 -37 21 -13 15 -24 22 -24 15 0 -7 -5 -10 -10 -7 -6 4 -8
11 -4 16 3 5 2 9 -3 8 -17 -3 -32 1 -45 14 -7 7 -24 18 -38 25 -14 7 -17 10
-8 8 15 -5 16 -3 5 14 -6 11 -13 16 -15 10 -5 -15 -16 -12 -45 13 -15 12 -23
27 -19 33 12 18 36 21 50 7 8 -8 30 -23 51 -33z m875 -271 c-1 -13 -5 -53 -9
-89 -4 -36 -8 -80 -10 -99 -4 -39 -9 -45 -29 -38 -10 4 -13 17 -11 41 2 20 0
36 -5 36 -5 0 -12 9 -15 20 -6 20 -7 20 -35 -2 -16 -13 -29 -30 -30 -38 0 -13
-1 -13 -10 0 -9 13 -14 7 -11 -12 2 -12 -12 -9 -33 7 -19 14 -11 21 17 16 5
-1 6 3 2 8 -3 6 2 22 11 36 13 20 19 23 25 13 6 -9 9 -6 9 10 0 27 -27 72 -44
72 -7 0 -6 -4 2 -9 10 -6 8 -10 -10 -14 -42 -12 -57 -8 -55 13 1 11 6 20 12
21 5 0 19 3 30 5 11 3 36 7 55 9 19 3 55 9 80 14 58 11 65 9 64 -20z m-344
-699 c0 -5 5 -9 12 -7 6 1 14 -6 16 -15 2 -13 -1 -16 -12 -12 -9 3 -16 1 -16
-5 0 -6 -6 -11 -13 -11 -8 0 -13 9 -11 23 1 12 3 25 3 30 1 11 21 8 21 -3z"/>
<path d="M2690 2246 c0 -2 7 -7 16 -10 8 -3 12 -2 9 4 -6 10 -25 14 -25 6z"/>
<path d="M2137 2109 c-8 -10 -17 -16 -20 -13 -4 4 -3 -6 2 -22 4 -16 6 -123 4
-239 -4 -253 -4 -201 -2 -491 1 -159 5 -245 13 -255 12 -15 16 -16 126 -23
104 -7 170 -15 205 -23 17 -4 35 -7 40 -8 44 -4 94 -18 90 -25 -3 -5 3 -7 15
-5 11 2 22 -1 25 -6 4 -5 11 -7 16 -4 5 4 9 2 9 -3 0 -5 21 -15 48 -22 26 -6
54 -17 62 -25 8 -7 25 -16 37 -19 13 -4 22 -12 20 -18 -1 -6 4 -13 12 -16 9
-3 11 0 6 8 -4 7 5 4 20 -6 28 -18 28 -18 15 3 -22 34 -128 90 -244 128 -121
40 -256 63 -393 67 l-93 3 0 508 0 507 43 0 42 0 -3 -437 c-1 -241 0 -448 3
-460 6 -27 15 -29 135 -44 196 -23 354 -93 478 -213 34 -33 62 -55 62 -49 0 6
-6 18 -13 25 -7 7 -14 17 -14 21 -1 5 -5 12 -9 15 -4 4 -4 1 1 -7 5 -10 4 -12
-4 -7 -6 4 -9 11 -6 16 3 4 -11 18 -30 30 -19 12 -35 25 -35 29 0 3 -16 15
-35 25 -19 10 -32 23 -29 28 3 4 -8 11 -25 14 -18 4 -28 11 -24 17 3 5 2 7 -4
4 -5 -3 -36 5 -69 18 -32 13 -76 27 -96 30 -21 4 -36 11 -33 15 2 4 -8 7 -23
7 -15 0 -47 3 -72 7 -25 5 -60 9 -78 11 -18 1 -37 6 -42 11 -5 5 -11 206 -12
446 -3 320 -7 441 -15 449 -7 7 -30 13 -53 15 -30 2 -43 -2 -53 -17z"/>
<path d="M3115 1210 c-3 -6 1 -7 9 -4 18 7 21 14 7 14 -6 0 -13 -4 -16 -10z"/>
<path d="M3510 1199 c0 -5 5 -7 10 -4 6 3 10 8 10 11 0 2 -4 4 -10 4 -5 0 -10
-5 -10 -11z"/>
<path d="M3598 1023 c7 -3 16 -2 19 1 4 3 -2 6 -13 5 -11 0 -14 -3 -6 -6z"/>
<path d="M2667 949 c7 -7 15 -10 18 -7 3 3 -2 9 -12 12 -14 6 -15 5 -6 -5z"/>
<path d="M3195 2101 c-3 -5 -2 -12 3 -15 5 -3 9 1 9 9 0 17 -3 19 -12 6z"/>
<path d="M1690 1654 c-14 -36 -13 -41 12 -58 26 -19 197 -23 229 -6 22 12 26
59 7 78 -8 8 -50 12 -125 12 -113 0 -114 0 -123 -26z m235 -19 c0 -18 -8 -20
-93 -25 -58 -3 -92 -1 -92 5 0 6 -4 4 -9 -3 -6 -10 -10 -8 -14 9 -4 13 -2 26
3 29 4 3 53 5 107 5 91 0 98 -1 98 -20z"/>
<path d="M4066 1658 c-39 -55 -3 -78 122 -78 104 0 132 9 132 45 0 53 -4 55
-126 55 -105 0 -114 -1 -128 -22z m84 -13 c0 -7 3 -7 8 0 4 6 26 10 49 10 25
0 39 -4 35 -10 -3 -5 2 -4 11 4 11 8 17 9 17 3 0 -6 7 -9 16 -5 14 5 15 3 5
-15 -10 -19 -20 -22 -76 -22 -37 0 -65 4 -65 10 0 6 -5 10 -11 10 -5 0 -7 -4
-4 -10 3 -6 -5 -10 -18 -10 -27 0 -41 22 -25 38 12 12 58 10 58 -3z"/>
<path d="M4011 1584 c0 -11 3 -14 6 -6 3 7 2 16 -1 19 -3 4 -6 -2 -5 -13z"/>
<path d="M1716 1484 c-20 -20 -20 -40 4 -144 64 -287 217 -536 452 -738 147
-126 369 -231 588 -277 66 -14 75 -14 96 0 52 34 17 78 -71 90 -67 10 -192 50
-279 89 -62 28 -201 109 -216 126 -3 3 -22 18 -42 33 -49 37 -144 130 -194
192 -74 91 -182 286 -200 362 -4 15 -10 33 -14 38 -6 8 -50 192 -50 209 0 10
-32 36 -45 36 -7 0 -21 -7 -29 -16z m60 -68 c7 -27 15 -63 18 -80 10 -62 17
-91 26 -100 5 -5 6 -15 3 -22 -3 -8 -1 -14 4 -14 5 0 10 -6 10 -13 0 -7 12
-39 26 -71 15 -32 24 -63 20 -69 -3 -5 -1 -7 4 -4 6 4 20 -11 32 -33 11 -22
18 -40 14 -40 -4 0 1 -6 12 -13 10 -8 15 -19 11 -25 -4 -8 -2 -10 7 -6 13 4
17 -1 29 -34 2 -4 18 -23 36 -42 24 -26 32 -42 29 -60 -4 -21 -3 -22 7 -9 8
12 14 13 22 5 5 -6 10 -15 10 -19 -1 -5 7 -13 17 -18 9 -6 14 -15 11 -21 -4
-7 -2 -8 4 -4 6 4 18 -5 27 -21 9 -15 14 -19 10 -9 -5 16 -3 17 10 6 8 -7 15
-19 15 -28 0 -8 3 -13 6 -9 3 3 16 -3 28 -14 19 -16 25 -40 17 -67 -1 -2 -13
9 -28 23 -15 14 -31 25 -35 25 -5 0 -8 5 -8 11 0 8 5 8 15 -1 10 -9 15 -9 15
-1 0 6 -3 11 -7 12 -41 4 -100 35 -89 46 3 4 16 -2 28 -13 21 -17 21 -17 -1 8
-13 15 -29 25 -34 21 -6 -4 -8 0 -4 11 4 11 3 15 -4 11 -13 -9 -51 35 -45 52
3 7 0 15 -6 19 -6 4 -8 3 -4 -4 3 -6 2 -13 -3 -16 -13 -8 -43 42 -34 57 4 7
-2 5 -12 -3 -17 -14 -18 -14 -6 9 7 13 9 21 3 18 -5 -4 -18 1 -28 9 -10 9 -13
13 -7 9 8 -4 11 -1 7 9 -3 9 -11 14 -16 13 -15 -3 -76 105 -70 123 3 8 1 12
-3 7 -14 -12 -56 85 -50 113 4 18 3 21 -4 10 -11 -17 -10 -20 -38 75 -10 33
-17 68 -15 78 1 10 -2 16 -7 13 -5 -3 -11 5 -13 19 -3 13 -1 22 3 19 13 -8 11
10 -3 24 -9 9 -9 12 0 12 9 0 8 8 -4 25 -15 24 -15 25 2 25 16 0 17 2 4 11
-12 8 -12 10 4 7 14 -2 23 -17 32 -52z m494 -808 c0 -6 3 -9 6 -5 3 3 19 -7
36 -21 16 -15 34 -27 40 -27 5 0 18 -11 29 -25 12 -14 18 -19 14 -12 -9 17 1
15 54 -13 25 -13 60 -30 78 -37 17 -7 29 -16 27 -20 -3 -4 1 -5 9 -3 7 3 26
-1 42 -9 16 -8 33 -12 38 -9 6 3 7 2 4 -4 -4 -6 5 -10 21 -11 15 0 46 -7 69
-16 22 -8 44 -12 47 -9 7 8 66 -17 66 -28 0 -5 -5 -9 -11 -9 -5 0 -7 -5 -3
-11 4 -8 0 -8 -15 0 -12 7 -26 9 -31 6 -6 -3 -10 -1 -10 5 0 6 -10 8 -24 4
-13 -3 -27 -1 -31 5 -3 6 -11 9 -16 5 -5 -3 -15 -1 -22 4 -13 10 -77 27 -89
24 -5 -1 -8 3 -8 9 0 5 -4 8 -9 5 -14 -9 -42 5 -35 16 4 6 -2 8 -15 3 -13 -4
-21 -2 -21 5 0 7 -7 10 -15 6 -8 -3 -21 1 -29 9 -8 8 -20 15 -26 15 -6 0 -8 4
-5 10 3 6 -1 7 -9 4 -11 -4 -16 0 -17 12 0 11 -3 14 -6 7 -2 -7 -9 -13 -14
-13 -6 0 -8 4 -5 9 3 5 -6 12 -19 15 -14 4 -23 11 -20 16 4 6 -1 7 -11 3 -14
-5 -16 -3 -11 12 7 16 5 16 -10 4 -14 -12 -16 -12 -8 0 6 11 4 13 -10 8 -15
-6 -17 -3 -12 20 5 26 4 26 -9 8 -8 -10 -15 -17 -15 -14 -7 26 -6 59 2 59 5 0
9 -5 9 -12z"/>
<path d="M1833 1115 c-3 -9 -3 -18 -1 -21 3 -3 8 4 11 16 6 23 -1 27 -10 5z"/>
<path d="M2670 396 c0 -2 9 -6 20 -9 11 -3 18 -1 14 4 -5 9 -34 13 -34 5z"/>
<path d="M2738 373 c7 -3 16 -2 19 1 4 3 -2 6 -13 5 -11 0 -14 -3 -6 -6z"/>
<path d="M4245 1491 c-16 -7 -24 -28 -39 -97 -69 -339 -262 -625 -548 -811
-117 -75 -319 -154 -433 -168 -61 -8 -92 -36 -80 -74 8 -28 27 -32 92 -20 420
76 808 382 970 764 45 105 50 122 78 230 31 123 32 161 6 175 -22 11 -20 11
-46 1z m35 -35 c0 -8 -6 -17 -12 -19 -8 -3 -5 -6 6 -6 15 -1 16 -3 6 -16 -7
-9 -13 -29 -12 -46 0 -19 -3 -27 -10 -23 -7 4 -8 2 -4 -4 9 -15 -26 -157 -53
-209 -5 -10 -28 -58 -51 -106 -23 -49 -48 -91 -55 -94 -8 -2 -11 -11 -8 -19 5
-13 -8 -19 -30 -15 -5 1 -6 -3 -2 -9 3 -5 -5 -25 -19 -43 -14 -19 -23 -38 -18
-43 4 -5 3 -6 -2 -2 -11 9 -36 -14 -28 -26 3 -5 -3 -6 -12 -3 -14 6 -17 3 -12
-9 4 -11 2 -15 -8 -11 -11 4 -13 1 -9 -10 4 -10 2 -14 -4 -10 -6 4 -13 -2 -16
-13 -3 -11 -14 -23 -25 -27 -12 -5 -21 -12 -20 -18 0 -5 -20 -24 -45 -41 -25
-18 -43 -35 -39 -39 4 -4 1 -6 -7 -3 -8 2 -25 -6 -39 -18 -51 -45 -62 -54 -71
-54 -5 0 -11 -3 -13 -7 -7 -17 -68 -42 -74 -31 -5 7 -2 8 6 3 9 -5 11 -4 6 4
-10 15 -27 4 -20 -13 6 -16 -49 -41 -68 -30 -7 4 -10 4 -6 -1 12 -13 -28 -35
-67 -37 -19 -1 -33 -4 -30 -6 9 -9 -65 -30 -88 -25 -18 4 -19 3 -7 -6 12 -9 8
-11 -17 -9 -17 1 -37 -3 -45 -9 -22 -19 -84 -12 -84 9 0 9 2 16 3 14 2 -2 33
5 68 15 36 10 63 14 60 8 -4 -5 -2 -9 4 -9 5 0 13 5 16 10 3 6 15 10 26 10 11
0 17 4 14 10 -4 6 1 7 11 3 12 -5 15 -3 9 6 -6 10 -3 11 15 1 18 -9 21 -9 15
0 -5 8 -3 11 6 8 8 -3 20 1 27 9 8 7 18 11 23 7 5 -3 16 2 25 10 9 9 20 14 25
11 5 -4 9 -1 9 4 0 6 4 10 8 8 11 -3 82 36 82 45 0 5 7 8 15 8 9 0 18 6 21 14
3 8 15 13 26 11 11 -3 18 -2 15 2 -3 3 4 13 16 23 20 16 22 17 34 1 12 -14 12
-14 7 2 -5 13 6 30 40 63 45 43 64 55 50 32 -4 -7 -3 -8 4 -4 7 4 12 14 12 21
0 17 34 37 45 27 5 -4 5 -1 1 6 -4 6 -2 12 3 12 6 0 10 3 9 8 -4 11 38 62 46
55 3 -3 6 0 6 8 0 8 9 21 19 29 11 7 18 17 15 22 -3 4 2 11 10 14 9 3 16 11
16 16 0 6 8 17 18 24 9 7 18 16 18 21 5 30 18 52 27 46 6 -4 8 0 4 10 -7 19 9
33 17 15 3 -7 4 -4 1 8 -3 12 1 26 9 33 8 7 12 19 9 27 -3 8 -1 14 5 14 5 0
15 20 22 45 7 25 17 42 23 38 5 -3 8 0 5 8 -3 8 4 38 14 67 10 29 16 57 13 63
-4 5 -1 9 5 9 7 0 9 7 6 16 -3 8 -2 13 3 10 5 -3 9 4 9 17 0 66 5 88 19 83 8
-3 11 -1 8 4 -3 6 -1 10 4 10 6 0 11 -6 11 -14z"/>
<path d="M4235 1309 c-4 -6 -5 -12 -2 -15 2 -3 7 2 10 11 7 17 1 20 -8 4z"/>
<path d="M4105 979 c-4 -6 -5 -12 -2 -15 2 -3 7 2 10 11 7 17 1 20 -8 4z"/>
<path d="M3225 360 c-3 -5 1 -10 10 -10 9 0 13 5 10 10 -3 6 -8 10 -10 10 -2
0 -7 -4 -10 -10z"/>
<path d="M3150 750 c-9 -6 -10 -10 -3 -10 6 0 15 5 18 10 8 12 4 12 -15 0z"/>
</g>
</svg>
